<svg xmlns="http://www.w3.org/2000/svg" width="140" height="22" viewBox="0 0 140 22" fill="none"><path d="M16.7191 6.87428C16.2991 6.2058 15.7683 5.61378 15.1494 5.12362C14.0016 4.20326 12.5707 3.70842 11.0995 3.72308C7.70321 3.72308 4.24857 6.29656 4.24857 10.8891C4.24857 15.6509 7.74989 18.1661 11.0995 18.1661C12.5995 18.1987 14.0703 17.7486 15.2953 16.8823C16.3739 16.1073 17.1414 14.9737 17.4603 13.6844H9.58809V10.2706H22.368C22.4447 12.088 22.1241 13.9002 21.4284 15.5809C19.4618 19.9751 14.9218 21.9125 11.1287 21.9125C9.67004 21.9382 8.22099 21.6718 6.86686 21.129C5.51274 20.5862 4.28091 19.778 3.24391 18.7518C2.20691 17.7257 1.3857 16.5025 0.828638 15.1541C0.27158 13.8058 -0.010072 12.3596 0.000275082 10.9008C0.000275082 4.59258 5.01886 0 11.187 0C15.9488 0 20.1446 3.02282 21.516 6.87428H16.7191Z" fill="#FBFFD2"></path><path d="M25.4258 0.396729H29.1605V3.73466H25.4258V0.396729ZM25.4258 5.84713H29.1605V21.5156H25.4258V5.84713Z" fill="#FBFFD2"></path><path d="M34.1266 8.7299H31.5298V5.84713H34.1266V0.396729H37.8672V5.84713H40.5457V8.7299H37.8672V21.5156H34.1266V8.7299Z" fill="#FBFFD2"></path><path d="M43.6327 0.396729H47.881V10.1888L54.8836 0.396729H59.3537L51.7033 10.9299L60.124 21.5156H54.9303L47.881 12.0387V21.5156H43.6327V0.396729Z" fill="#FBFFD2"></path><path d="M62.1489 5.84726H65.6911V7.90138C66.3739 6.50668 67.6577 5.39209 70.0269 5.36292V9.13268H69.8577C67.2375 9.13268 65.8954 10.3581 65.8954 13.0658V21.5157H62.1548L62.1489 5.84726Z" fill="#FBFFD2"></path><path d="M87.8019 21.5157H84.0672V19.2632C83.0693 21.0839 80.986 22.0001 78.786 22.0001C73.7616 22.0001 70.8263 18.0903 70.8263 13.6669C70.8263 8.73003 74.3918 5.36292 78.786 5.36292C81.6396 5.36292 83.3786 6.87432 84.0672 8.12897V5.84726H87.8019V21.5157ZM74.561 13.7544C74.5532 14.3824 74.6712 15.0056 74.9081 15.5873C75.145 16.169 75.496 16.6973 75.9403 17.1411C76.3847 17.5849 76.9135 17.9353 77.4954 18.1715C78.0773 18.4076 78.7007 18.5249 79.3287 18.5162C80.1923 18.5501 81.0469 18.3306 81.7872 17.8847C82.5276 17.4388 83.1213 16.7861 83.4953 16.007C83.8423 15.3249 84.0412 14.5771 84.0788 13.8128C84.1057 13.056 83.958 12.3032 83.647 11.6128C83.281 10.767 82.6689 10.0509 81.8905 9.55759C81.112 9.06428 80.2031 8.8166 79.282 8.84674C78.6468 8.84321 78.0175 8.96805 77.4318 9.21376C76.8461 9.45946 76.3161 9.82098 75.8735 10.2766C75.431 10.7322 75.0851 11.2726 74.8565 11.8652C74.628 12.4578 74.5215 13.0905 74.5435 13.7253L74.561 13.7544Z" fill="#FBFFD2"></path><path d="M91.8868 0.396729H95.6216V11.8111L101.014 5.84713H105.495L98.9887 12.7564L105.525 21.5098H101.247L95.6216 13.6901V21.5098H91.8868V0.396729Z" fill="#FBFFD2"></path><path d="M111.961 17.7751C113.904 19.374 116.449 18.7205 117.896 17.1449C118.446 16.6199 118.837 15.9505 119.023 15.2135C119.21 14.4765 119.186 13.7018 118.952 12.9783L121.596 10.1772C122.308 11.7435 122.547 13.4837 122.284 15.1841C122.04 16.7644 121.312 18.2301 120.201 19.3799C118.676 20.9242 116.608 21.8116 114.438 21.8529C112.268 21.8942 110.168 21.0861 108.585 19.601C107.003 18.1158 106.063 16.0711 105.966 13.9029C105.87 11.7347 106.624 9.61458 108.069 7.99471C108.802 7.19302 109.691 6.54887 110.681 6.10144C111.671 5.65402 112.742 5.41266 113.829 5.39205C115.133 5.36809 116.425 5.64583 117.604 6.20358C118.784 6.76133 119.818 7.58401 120.627 8.60744L111.961 17.7751ZM116.046 9.32522C115.17 8.75322 114.115 8.51952 113.079 8.66769C112.043 8.81586 111.096 9.33578 110.415 10.1305C108.512 12.138 108.927 14.6122 109.948 15.7735L116.046 9.32522Z" fill="#FBFFD2"></path><path d="M125.389 5.84723H128.89C128.89 6.53583 128.89 7.18941 128.861 7.93053C129.549 6.70506 130.944 5.33371 133.739 5.36288C138.851 5.36288 139.82 9.30188 139.82 12.0679V21.5157H136.079V13.0133C136.079 10.6791 135.309 8.87589 132.683 8.87589C130.057 8.87589 129.118 10.6732 129.118 12.8674V21.5157H125.383L125.389 5.84723Z" fill="#FBFFD2"></path></svg>